# xmcd
#
# Track frame offsets:
#	150
#	17892
#	48852
#	64027
#	73963
#	86713
#	110644
#	125812
#	141331
#	157202
#	179935
#
# Disc length: 3062 seconds
#
# Revision: 1
# Processed by: cddbd v1.5.2PL0 Copyright (c) Steve Scherf et al.
# Submitted via: audiograbber 1.83.01
#
DISCID=b20bf40b
DTITLE=Amy Winehouse - Frank
DYEAR=2003
DGENRE=Jazz
TTITLE0=Intro
TTITLE1=Stronger than me
TTITLE2=You sent me flying
TTITLE3=Cherry
TTITLE4=Fuck me pumps
TTITLE5=I heard love is blind
TTITLE6=Teo licks
TTITLE7=(There is) no greater love
TTITLE8=In my bed
TTITLE9=Take the box
TTITLE10=October song
EXTD=
EXTT0=
EXTT1=
EXTT2=
EXTT3=
EXTT4=
EXTT5=
EXTT6=
EXTT7=
EXTT8=
EXTT9=
EXTT10=
PLAYORDER=
